G04 #@! TF.GenerationSoftware,KiCad,Pcbnew,(5.1.2-1)-1*
G04 #@! TF.CreationDate,2019-09-24T13:43:54+08:00*
G04 #@! TF.ProjectId,osilloscopen,6f73696c-6c6f-4736-936f-70656e2e6b69,rev?*
G04 #@! TF.SameCoordinates,Original*
G04 #@! TF.FileFunction,Paste,Bot*
G04 #@! TF.FilePolarity,Positive*
%FSLAX46Y46*%
G04 Gerber Fmt 4.6, Leading zero omitted, Abs format (unit mm)*
G04 Created by KiCad (PCBNEW (5.1.2-1)-1) date 2019-09-24 13:43:54*
%MOMM*%
%LPD*%
G04 APERTURE LIST*
%ADD10R,1.300000X0.250000*%
%ADD11R,0.250000X1.300000*%
G04 APERTURE END LIST*
D10*
X193770000Y-94190000D03*
X193770000Y-93690000D03*
X193770000Y-93190000D03*
X193770000Y-92690000D03*
X193770000Y-92190000D03*
X193770000Y-91690000D03*
X193770000Y-91190000D03*
X193770000Y-90690000D03*
X193770000Y-90190000D03*
X193770000Y-89690000D03*
X193770000Y-89190000D03*
X193770000Y-88690000D03*
D11*
X195370000Y-87090000D03*
X195870000Y-87090000D03*
X196370000Y-87090000D03*
X196870000Y-87090000D03*
X197370000Y-87090000D03*
X197870000Y-87090000D03*
X198370000Y-87090000D03*
X198870000Y-87090000D03*
X199370000Y-87090000D03*
X199870000Y-87090000D03*
X200370000Y-87090000D03*
X200870000Y-87090000D03*
D10*
X202470000Y-88690000D03*
X202470000Y-89190000D03*
X202470000Y-89690000D03*
X202470000Y-90190000D03*
X202470000Y-90690000D03*
X202470000Y-91190000D03*
X202470000Y-91690000D03*
X202470000Y-92190000D03*
X202470000Y-92690000D03*
X202470000Y-93190000D03*
X202470000Y-93690000D03*
X202470000Y-94190000D03*
D11*
X200870000Y-95790000D03*
X200370000Y-95790000D03*
X199870000Y-95790000D03*
X199370000Y-95790000D03*
X198870000Y-95790000D03*
X198370000Y-95790000D03*
X197870000Y-95790000D03*
X197370000Y-95790000D03*
X196870000Y-95790000D03*
X196370000Y-95790000D03*
X195870000Y-95790000D03*
X195370000Y-95790000D03*
M02*
