M48
; DRILL file {KiCad (5.1.2-1)-1} date Tuesday, 24 September 2019 at 13:43:57
; FORMAT={-:-/ absolute / metric / decimal}
; #@! TF.CreationDate,2019-09-24T13:43:57+08:00
; #@! TF.GenerationSoftware,Kicad,Pcbnew,(5.1.2-1)-1
; #@! TF.FileFunction,Plated,1,2,PTH
FMAT,2
METRIC
T1C0.400
T2C0.800
T3C0.900
T4C1.000
T5C1.100
T6C1.500
T7C1.501
%
G90
G05
T1
X162.416Y-95.25
X193.548Y-95.758
X195.58Y-89.662
X196.342Y-88.646
X197.104Y-89.662
X197.866Y-88.646
X198.374Y-101.6
X199.39Y-90.69
X202.438Y-86.868
X203.2Y-94.996
X217.043Y-93.345
T2
X177.038Y-90.424
X177.038Y-100.584
X109.982Y-86.487
X120.142Y-86.487
X186.436Y-91.44
X186.436Y-96.44
X176.53Y-81.36
X176.53Y-86.36
X220.218Y-83.098
X220.218Y-85.598
X109.982Y-106.68
X120.142Y-106.68
X181.864Y-92.91
X181.864Y-97.79
X169.164Y-84.154
X169.164Y-89.154
X123.825Y-102.235
X123.825Y-107.235
X130.048Y-101.513
X130.048Y-104.013
X98.552Y-89.662
X98.552Y-99.822
X144.145Y-83.058
X144.145Y-93.218
X181.61Y-83.86
X181.61Y-86.36
X135.89Y-98.552
X135.89Y-101.092
X135.89Y-103.632
X135.89Y-106.172
X143.51Y-98.552
X143.51Y-101.092
X143.51Y-103.632
X143.51Y-106.172
X123.825Y-82.376
X123.825Y-87.376
X109.982Y-82.804
X120.142Y-82.804
X114.935Y-90.932
X114.935Y-93.472
X114.935Y-96.012
X114.935Y-98.552
X122.555Y-90.932
X122.555Y-93.472
X122.555Y-96.012
X122.555Y-98.552
X149.225Y-97.322
X149.225Y-99.822
X106.172Y-89.662
X106.172Y-99.822
X94.742Y-89.662
X94.742Y-99.822
X172.72Y-86.614
X172.72Y-94.234
X140.335Y-83.058
X140.335Y-93.218
X109.982Y-103.124
X120.142Y-103.124
X151.638Y-83.058
X151.638Y-93.218
X147.955Y-83.058
X147.955Y-93.218
X128.27Y-83.312
X128.27Y-85.852
X128.27Y-88.392
X128.27Y-90.932
X135.89Y-83.312
X135.89Y-85.852
X135.89Y-88.392
X135.89Y-90.932
X257.378Y-93.599
X259.878Y-93.599
X102.362Y-89.662
X102.362Y-99.822
X155.194Y-83.058
X155.194Y-93.218
X189.484Y-90.504
X189.484Y-95.504
X109.982Y-89.662
X109.982Y-99.822
T3
X256.54Y-104.775
X258.54Y-104.775
X260.54Y-104.775
T4
X186.69Y-81.915
X189.23Y-81.915
X191.77Y-81.915
X196.85Y-81.915
X199.39Y-81.915
X191.77Y-103.505
X194.31Y-103.505
X196.85Y-103.505
X201.93Y-81.915
X204.47Y-81.915
X194.31Y-81.915
X234.315Y-85.623
X236.855Y-85.623
X239.395Y-85.623
X241.935Y-85.623
X207.01Y-89.535
X209.55Y-89.535
X212.09Y-89.535
X214.63Y-89.535
X194.31Y-99.695
X196.85Y-99.695
X207.01Y-93.345
X209.55Y-93.345
X212.09Y-93.345
X214.63Y-93.345
X186.69Y-99.695
X189.23Y-99.695
X191.77Y-99.695
X234.34Y-83.007
X236.88Y-83.007
X239.42Y-83.007
X241.96Y-83.007
X214.63Y-85.725
X272.27Y-88.38
X272.27Y-90.92
X272.27Y-93.46
X207.01Y-85.725
X209.55Y-85.725
X212.09Y-85.725
X207.01Y-97.155
X209.55Y-97.155
X212.09Y-97.155
X214.63Y-97.155
X88.9Y-95.25
X207.01Y-81.915
T5
X168.91Y-104.14
X168.91Y-108.64
X175.41Y-104.14
X175.41Y-108.64
X179.07Y-104.14
X179.07Y-108.64
X185.57Y-104.14
X185.57Y-108.64
X148.59Y-104.14
X148.59Y-108.64
X155.09Y-104.14
X155.09Y-108.64
X159.108Y-84.4
X159.108Y-88.9
X165.608Y-84.4
X165.608Y-88.9
X158.75Y-104.14
X158.75Y-108.64
X165.25Y-104.14
X165.25Y-108.64
T6
X254.44Y-104.775
X262.64Y-104.775
T7
X104.267Y-106.172
T0
M30
