G04 #@! TF.GenerationSoftware,KiCad,Pcbnew,(5.1.2-1)-1*
G04 #@! TF.CreationDate,2019-09-24T13:43:54+08:00*
G04 #@! TF.ProjectId,osilloscopen,6f73696c-6c6f-4736-936f-70656e2e6b69,rev?*
G04 #@! TF.SameCoordinates,Original*
G04 #@! TF.FileFunction,Soldermask,Top*
G04 #@! TF.FilePolarity,Negative*
%FSLAX46Y46*%
G04 Gerber Fmt 4.6, Leading zero omitted, Abs format (unit mm)*
G04 Created by KiCad (PCBNEW (5.1.2-1)-1) date 2019-09-24 13:43:54*
%MOMM*%
%LPD*%
G04 APERTURE LIST*
%ADD10C,0.150000*%
%ADD11C,3.900000*%
%ADD12C,2.000000*%
%ADD13R,2.000000X2.000000*%
%ADD14R,2.100000X2.100000*%
%ADD15O,2.100000X2.100000*%
%ADD16O,2.000000X2.000000*%
%ADD17C,2.400000*%
%ADD18O,2.800000X2.000000*%
%ADD19R,2.800000X2.000000*%
%ADD20R,2.400000X4.200000*%
%ADD21R,2.400000X1.900000*%
%ADD22C,1.900000*%
%ADD23R,1.900000X2.900000*%
%ADD24O,1.900000X2.900000*%
%ADD25O,2.600000X3.900000*%
%ADD26C,4.400500*%
G04 APERTURE END LIST*
D10*
G36*
X92202000Y-97358200D02*
G01*
X86385400Y-97282000D01*
X85064600Y-95021400D01*
X86385400Y-92837000D01*
X92202000Y-92837000D01*
X92202000Y-97358200D01*
G37*
X92202000Y-97358200D02*
X86385400Y-97282000D01*
X85064600Y-95021400D01*
X86385400Y-92837000D01*
X92202000Y-92837000D01*
X92202000Y-97358200D01*
D11*
X269240000Y-104140000D03*
X269240000Y-83820000D03*
X97155000Y-83820000D03*
D12*
X130048000Y-101513000D03*
D13*
X130048000Y-104013000D03*
D14*
X186690000Y-81915000D03*
D15*
X189230000Y-81915000D03*
X191770000Y-81915000D03*
D16*
X151638000Y-93218000D03*
D12*
X151638000Y-83058000D03*
D15*
X214630000Y-93345000D03*
X212090000Y-93345000D03*
X209550000Y-93345000D03*
D14*
X207010000Y-93345000D03*
X241935000Y-85623400D03*
D15*
X239395000Y-85623400D03*
X236855000Y-85623400D03*
X234315000Y-85623400D03*
D14*
X88900000Y-95250000D03*
X272270000Y-93460000D03*
D15*
X272270000Y-90920000D03*
X272270000Y-88380000D03*
D13*
X149225000Y-99822000D03*
D12*
X149225000Y-97322000D03*
D13*
X181610000Y-86360000D03*
D12*
X181610000Y-83860000D03*
X220218000Y-83098000D03*
D13*
X220218000Y-85598000D03*
X257378200Y-93599000D03*
D12*
X259878200Y-93599000D03*
X172720000Y-86614000D03*
D16*
X172720000Y-94234000D03*
D12*
X94742000Y-99822000D03*
D16*
X94742000Y-89662000D03*
X98552000Y-99822000D03*
D12*
X98552000Y-89662000D03*
X102362000Y-89662000D03*
D16*
X102362000Y-99822000D03*
D12*
X106172000Y-99822000D03*
D16*
X106172000Y-89662000D03*
D12*
X120142000Y-106680000D03*
D16*
X109982000Y-106680000D03*
X120142000Y-103124000D03*
D12*
X109982000Y-103124000D03*
X120142000Y-82804000D03*
D16*
X109982000Y-82804000D03*
X120142000Y-86487000D03*
D12*
X109982000Y-86487000D03*
D16*
X109982000Y-89662000D03*
D12*
X109982000Y-99822000D03*
D16*
X140335000Y-83058000D03*
D12*
X140335000Y-93218000D03*
X144145000Y-83058000D03*
D16*
X144145000Y-93218000D03*
D12*
X177038000Y-100584000D03*
D16*
X177038000Y-90424000D03*
D17*
X179070000Y-108640000D03*
X179070000Y-104140000D03*
X185570000Y-108640000D03*
X185570000Y-104140000D03*
X175410000Y-104140000D03*
X175410000Y-108640000D03*
X168910000Y-104140000D03*
X168910000Y-108640000D03*
X158750000Y-108640000D03*
X158750000Y-104140000D03*
X165250000Y-108640000D03*
X165250000Y-104140000D03*
X155090000Y-104140000D03*
X155090000Y-108640000D03*
X148590000Y-104140000D03*
X148590000Y-108640000D03*
D18*
X122555000Y-90932000D03*
X114935000Y-98552000D03*
X122555000Y-93472000D03*
X114935000Y-96012000D03*
X122555000Y-96012000D03*
X114935000Y-93472000D03*
X122555000Y-98552000D03*
D19*
X114935000Y-90932000D03*
X143510000Y-106172000D03*
D18*
X135890000Y-98552000D03*
X143510000Y-103632000D03*
X135890000Y-101092000D03*
X143510000Y-101092000D03*
X135890000Y-103632000D03*
X143510000Y-98552000D03*
X135890000Y-106172000D03*
D20*
X263677800Y-85394800D03*
D21*
X257377800Y-85394800D03*
X257377800Y-87694800D03*
X257377800Y-83094800D03*
D22*
X181864000Y-97790000D03*
X181864000Y-92910000D03*
D23*
X256540000Y-104775000D03*
D24*
X258540000Y-104775000D03*
X260540000Y-104775000D03*
D25*
X254440000Y-104775000D03*
X262640000Y-104775000D03*
D14*
X214630000Y-85725000D03*
X207010000Y-89535000D03*
D15*
X209550000Y-89535000D03*
X212090000Y-89535000D03*
X214630000Y-89535000D03*
D14*
X214630000Y-97155000D03*
D15*
X186690000Y-99695000D03*
X189230000Y-99695000D03*
D14*
X191770000Y-99695000D03*
X194310000Y-81915000D03*
X196850000Y-81915000D03*
D15*
X199390000Y-81915000D03*
D14*
X207010000Y-97155000D03*
D15*
X209550000Y-97155000D03*
X212090000Y-97155000D03*
D14*
X196850000Y-99695000D03*
D15*
X194310000Y-99695000D03*
X204470000Y-81915000D03*
D14*
X201930000Y-81915000D03*
X207010000Y-81915000D03*
D15*
X212090000Y-85725000D03*
X209550000Y-85725000D03*
D14*
X207010000Y-85725000D03*
X241960400Y-83007200D03*
D15*
X239420400Y-83007200D03*
X236880400Y-83007200D03*
X234340400Y-83007200D03*
D26*
X104267000Y-106172000D03*
D12*
X147955000Y-83058000D03*
D16*
X147955000Y-93218000D03*
D12*
X123825000Y-82376000D03*
X123825000Y-87376000D03*
X123825000Y-102235000D03*
X123825000Y-107235000D03*
X169164000Y-89154000D03*
X169164000Y-84154000D03*
D14*
X191770000Y-103505000D03*
D15*
X194310000Y-103505000D03*
X196850000Y-103505000D03*
D12*
X155194000Y-83058000D03*
D16*
X155194000Y-93218000D03*
D17*
X165608000Y-84400000D03*
X165608000Y-88900000D03*
X159108000Y-84400000D03*
X159108000Y-88900000D03*
D11*
X97155000Y-106172000D03*
D12*
X176530000Y-86360000D03*
X176530000Y-81360000D03*
X186436000Y-96440000D03*
X186436000Y-91440000D03*
X189484000Y-95504000D03*
X189484000Y-90504000D03*
D19*
X135890000Y-90932000D03*
D18*
X128270000Y-83312000D03*
X135890000Y-88392000D03*
X128270000Y-85852000D03*
X135890000Y-85852000D03*
X128270000Y-88392000D03*
X135890000Y-83312000D03*
X128270000Y-90932000D03*
M02*
