G04 #@! TF.GenerationSoftware,KiCad,Pcbnew,(5.1.2-1)-1*
G04 #@! TF.CreationDate,2019-09-24T13:43:54+08:00*
G04 #@! TF.ProjectId,osilloscopen,6f73696c-6c6f-4736-936f-70656e2e6b69,rev?*
G04 #@! TF.SameCoordinates,Original*
G04 #@! TF.FileFunction,Legend,Bot*
G04 #@! TF.FilePolarity,Positive*
%FSLAX46Y46*%
G04 Gerber Fmt 4.6, Leading zero omitted, Abs format (unit mm)*
G04 Created by KiCad (PCBNEW (5.1.2-1)-1) date 2019-09-24 13:43:54*
%MOMM*%
%LPD*%
G04 APERTURE LIST*
%ADD10C,0.120000*%
%ADD11C,0.150000*%
G04 APERTURE END LIST*
D10*
X201680000Y-95000000D02*
X201680000Y-94580000D01*
X201680000Y-87880000D02*
X201680000Y-88300000D01*
X194560000Y-87880000D02*
X194560000Y-88300000D01*
X194560000Y-95000000D02*
X194980000Y-95000000D01*
X201680000Y-87880000D02*
X201260000Y-87880000D01*
X201680000Y-95000000D02*
X201260000Y-95000000D01*
X194560000Y-94580000D02*
X193180000Y-94580000D01*
X194560000Y-95000000D02*
X194560000Y-94580000D01*
X194560000Y-87880000D02*
X194980000Y-87880000D01*
D11*
X202056904Y-96607380D02*
X202056904Y-97416904D01*
X202009285Y-97512142D01*
X201961666Y-97559761D01*
X201866428Y-97607380D01*
X201675952Y-97607380D01*
X201580714Y-97559761D01*
X201533095Y-97512142D01*
X201485476Y-97416904D01*
X201485476Y-96607380D01*
X201104523Y-96607380D02*
X200485476Y-96607380D01*
X200818809Y-96988333D01*
X200675952Y-96988333D01*
X200580714Y-97035952D01*
X200533095Y-97083571D01*
X200485476Y-97178809D01*
X200485476Y-97416904D01*
X200533095Y-97512142D01*
X200580714Y-97559761D01*
X200675952Y-97607380D01*
X200961666Y-97607380D01*
X201056904Y-97559761D01*
X201104523Y-97512142D01*
M02*
